<svg xmlns="http://www.w3.org/2000/svg" width="151.667" height="20.474"><defs><style>.a{fill:#1f4080}.c{fill:#ed1c24}</style></defs><path class="a" d="M19.749.991c0-.376-.116-.515-.506-.51-1.611.018-3.224.028-4.835-.006-.512-.011-.6.177-.6.637.018 3.071.017 6.143.011 9.214a3.974 3.974 0 01-3.16 3.915 3.93 3.93 0 01-4.564-2.631 7.39 7.39 0 01-.1-.32h-.224a4.212 4.212 0 004.261 3.252A4.137 4.137 0 0014 10.402c.042-2.98.017-5.959.024-8.939 0-.2.027-.408.045-.651a.877.877 0 01.565.931c-.007 2.87.011 5.738 0 8.608a4.782 4.782 0 01-9.327 1.5 6.238 6.238 0 01-.149-.556h-.224a5.04 5.04 0 005.07 4.074 4.948 4.948 0 004.805-4.858c.046-2.721.018-5.444.025-8.166 0-.207.02-.414.029-.621l.216-.059a2.4 2.4 0 01.351.818c.025 2.7.053 5.407 0 8.11a5.591 5.591 0 01-11.1.7h-.206c0 .024.007.048.013.072a5.79 5.79 0 0011.494-.862c.055-2.445.02-4.892.028-7.338 0-.2.032-.4.051-.6.08-.013.161-.025.241-.039a3.487 3.487 0 01.3.956q.042 3.447.008 6.9a6.555 6.555 0 01-.241 1.739 6.4 6.4 0 01-12.358-.09 9.061 9.061 0 01-.165-.734h-.2a5.77 5.77 0 00.1.622 6.691 6.691 0 007 5.074 6.6 6.6 0 006.053-6.443c.035-2.17.015-4.34.02-6.51v-.589h.616v.627c0 2.024.029 4.047-.014 6.069a9.542 9.542 0 01-.324 2.332 7.2 7.2 0 01-13.712.289 13.339 13.339 0 01-.366-1.472h-.222a7.439 7.439 0 0014.818-.752c.045-2.316.025-4.634.021-6.952a1.073 1.073 0 01.613-1.094v7.486a10.563 10.563 0 01-.058 1.431 8.048 8.048 0 01-15.791.924 24.236 24.236 0 01-.2-1.042h-.2a10.989 10.989 0 00.23 1.212 8.243 8.243 0 0016.21-1.988c0-2.612.013-5.224.008-7.835a.977.977 0 01.564-1.007 3.68 3.68 0 01.053.4c0 2.814.018 5.629 0 8.442a8.441 8.441 0 01-.226 1.856 8.856 8.856 0 01-17.267.018 12.233 12.233 0 01-.2-1.1H.827c.014.127.028.253.046.38a9.062 9.062 0 0017.055 2.828 9.868 9.868 0 001-4.636c-.024-2.685 0-5.371-.01-8.056a1.015 1.015 0 01.617-1.029v.652c0 2.907.01 5.813-.007 8.718a12.078 12.078 0 01-.161 1.974 9.661 9.661 0 01-12.655 7.406 9.513 9.513 0 01-6.506-8.237h-.211a9.361 9.361 0 00.147 1.01 9.883 9.883 0 0019.568-1.488c.08-3.271.02-6.547.034-9.821"/><path d="M11.611 10.38a1.665 1.665 0 00-1.718-1.836 1.814 1.814 0 00-1.863 1.75 1.793 1.793 0 001.828 1.843 1.678 1.678 0 001.753-1.757" fill="#fff"/><path class="a" d="M19.749.991c0-.376-.116-.515-.506-.51-1.611.018-3.224.028-4.835-.006-.512-.011-.6.177-.6.637.018 3.071.017 6.143.011 9.214a3.974 3.974 0 01-3.16 3.915 3.93 3.93 0 01-4.564-2.631 7.39 7.39 0 01-.1-.32h-.224a4.212 4.212 0 004.261 3.252A4.137 4.137 0 0014 10.402c.042-2.98.017-5.959.024-8.939 0-.2.027-.408.045-.651a.877.877 0 01.565.931c-.007 2.87.011 5.738 0 8.608a4.782 4.782 0 01-9.327 1.5 6.238 6.238 0 01-.149-.556h-.224a5.04 5.04 0 005.07 4.074 4.948 4.948 0 004.805-4.858c.046-2.721.018-5.444.025-8.166 0-.207.02-.414.029-.621l.216-.059a2.4 2.4 0 01.351.818c.025 2.7.053 5.407 0 8.11a5.591 5.591 0 01-11.1.7h-.206c0 .024.007.048.013.072a5.79 5.79 0 0011.494-.862c.055-2.445.02-4.892.028-7.338 0-.2.032-.4.051-.6.08-.013.161-.025.241-.039a3.487 3.487 0 01.3.956q.042 3.447.008 6.9a6.555 6.555 0 01-.241 1.739 6.4 6.4 0 01-12.358-.09 9.061 9.061 0 01-.165-.734h-.2a5.77 5.77 0 00.1.622 6.691 6.691 0 007 5.074 6.6 6.6 0 006.053-6.443c.035-2.17.015-4.34.02-6.51v-.589h.616v.627c0 2.024.029 4.047-.014 6.069a9.542 9.542 0 01-.324 2.332 7.2 7.2 0 01-13.712.289 13.339 13.339 0 01-.366-1.472h-.222a7.439 7.439 0 0014.818-.752c.045-2.316.025-4.634.021-6.952a1.073 1.073 0 01.613-1.094v7.486a10.563 10.563 0 01-.058 1.431 8.048 8.048 0 01-15.791.924 24.236 24.236 0 01-.2-1.042h-.2a10.989 10.989 0 00.23 1.212 8.243 8.243 0 0016.21-1.988c0-2.612.013-5.224.008-7.835a.977.977 0 01.564-1.007 3.68 3.68 0 01.053.4c0 2.814.018 5.629 0 8.442a8.441 8.441 0 01-.226 1.856 8.856 8.856 0 01-17.267.018 12.233 12.233 0 01-.2-1.1H.827c.014.127.028.253.046.38a9.062 9.062 0 0017.055 2.828 9.868 9.868 0 001-4.636c-.024-2.685 0-5.371-.01-8.056a1.015 1.015 0 01.617-1.029v.652c0 2.907.01 5.813-.007 8.718a12.078 12.078 0 01-.161 1.974 9.661 9.661 0 01-12.655 7.406 9.513 9.513 0 01-6.506-8.237h-.211a9.361 9.361 0 00.147 1.01 9.883 9.883 0 0019.568-1.488c.08-3.271.02-6.547.034-9.821"/><path class="c jump" d="M11.611 10.38a1.678 1.678 0 01-1.753 1.757 1.793 1.793 0 01-1.828-1.843 1.814 1.814 0 011.863-1.75 1.665 1.665 0 011.718 1.836"/><path class="a" d="M13.86.701l2.919 3.715 2.9-3.715"/><path d="M88.248 12.158h0c-.865 0-1.727-.007-2.574-.014l-1.122-.008a.671.671 0 01-.567-.4.622.622 0 01-.02-.152.369.369 0 01.077-.233.343.343 0 01.054-.056h0-.03l-.037-.116a.741.741 0 01-.013-.556.421.421 0 01.034-.055.4.4 0 01.036-.041l.018-.029h-.026l-.039-.116a.785.785 0 01-.016-.606.382.382 0 01.029-.046.443.443 0 01.22-.155 1.561 1.561 0 01-.145-.144 1.365 1.365 0 00-.1-.11l-.167-.139h0l.173-.126h.005c.033-.026.07-.06.108-.1s.067-.062.1-.092h-.157l-.04-.112a.976.976 0 01-.074-.489.383.383 0 01.094-.2.4.4 0 01.084-.073.356.356 0 01-.059-.045.492.492 0 01-.134-.378v-.015a.49.49 0 01.131-.362.408.408 0 01.035-.03l-.084-.021-.026-.093a.649.649 0 01.037-.593.4.4 0 01.107-.1.421.421 0 01-.067-.055.488.488 0 01-.133-.376.514.514 0 01.114-.353l-.035-.111a.735.735 0 01.021-.648l.007-.012.01-.012h0l.016-.018h-.024l-.036-.131a.761.761 0 01.027-.657.411.411 0 01.059-.062h.005a.469.469 0 01.154-.09.594.594 0 01-.291-.32.421.421 0 01.053-.374.349.349 0 01.044-.046l-.031-.081a1.031 1.031 0 01-.085-.47.414.414 0 01.07-.188.409.409 0 01.109-.106.357.357 0 01-.054-.045.5.5 0 01-.133-.4.548.548 0 01.1-.332l-.03-.118a1.308 1.308 0 01-.058-.35.5.5 0 01.088-.3.625.625 0 01.522-.194h2.324C88.251.498 89.641.49 91.009.53a5.808 5.808 0 013.9 9.823 5.61 5.61 0 01-3.937 1.774c-.9.024-1.814.031-2.719.031z" stroke="transparent" stroke-miterlimit="10" fill="#1f4080"/><path class="c" d="M77.58.474h6.93v19.78h-6.93z"/><path class="a" d="M38.652.628l-.028 10.853a10.964 10.964 0 01-.607 3.858 8.153 8.153 0 01-1.742 2.83 7.039 7.039 0 01-2.682 1.749 11.3 11.3 0 01-6.994 0 7.034 7.034 0 01-2.68-1.749 8.113 8.113 0 01-1.742-2.83 11.126 11.126 0 01-.609-3.887V.652h4.644v10.685a5.471 5.471 0 001 3.664 4.307 4.307 0 005.805-.028 5.469 5.469 0 001-3.663V.628zm20.108 0v19.43h-4.558V15.34q0-3.456.083-5.163a16.026 16.026 0 00.055-1.722h-.028l-.248.417c-.166.277-.359.583-.581.944s-.415.694-.609 1a3.988 3.988 0 00-.331.583l-2.266 3.886h-2.405l-2.266-3.886a4.059 4.059 0 00-.332-.583c-.194-.306-.387-.638-.609-1s-.414-.666-.579-.944l-.25-.417h-.034a15.839 15.839 0 00.056 1.694q.082 1.707.083 5.163v4.746H39.38V.628h4.367l3.621 5.885c.359.583.637 1.055.857 1.415s.387.638.5.86a4.288 4.288 0 00.248.444l.084.111h.027l.083-.111a3.974 3.974 0 00.25-.444c.111-.223.276-.5.5-.86s.5-.832.857-1.415L54.397.628zm8.36 8.967h-.027a3.239 3.239 0 002.128-.611 2.292 2.292 0 000-3.387 3.159 3.159 0 00-2.1-.61h-2.654v4.608zm.056-8.967h-.028a10.456 10.456 0 013.208.444 6.772 6.772 0 012.4 1.332 5.774 5.774 0 011.52 2.111 7.587 7.587 0 010 5.552 5.781 5.781 0 01-1.52 2.11 6.751 6.751 0 01-2.4 1.332 10.23 10.23 0 01-3.18.444H64.44v6.106h-4.645V.629zm45.534 15.211v4.359H98.477V.766h14.072V5.12h-9.426v3.2h7.38v4.081h-7.38v3.442zm13.248-2.776l-1.438-3.748q-.166-.416-.332-.917c-.109-.332-.192-.638-.276-.915s-.165-.528-.22-.722l-.084-.3h-.027l-.083.277c-.056.194-.139.444-.222.721s-.166.583-.276.917-.222.638-.332.915l-1.382 3.776zm1.438 4.108h-7.658l-1.107 3.025h-4.975l7.712-19.4h4.4l7.741 19.4h-5zm18.801 3.025l-5.944-8.1-1.631 1.636v6.44h-4.644V.742h4.644v7.327h.028l.137-.138.415-.417c.193-.194.443-.472.774-.8s.746-.751 1.244-1.249l4.7-4.692h5.694l-8.21 8.272 8.267 11.159z"/></svg>